REM DIRINDEX 1\2,1\3,1\4,1\5,1\6
REM DIRNAME folder01,folder02,folder03,folder04,folder05,folder06
TITLE ""
FILE "DISC2Track22.mp3" MP3
  TRACK 01 AUDIO
    TITLE "0:"
    INDEX 01 00:00:00
  TRACK 02 AUDIO
    TITLE "3:cjc129_1596"
    INDEX 01 00:00:07
  TRACK 03 AUDIO
    TITLE "0:"
    INDEX 01 00:01:26
  TRACK 04 AUDIO
    TITLE "5:cjc129_1597"
    INDEX 01 00:02:73
  TRACK 05 AUDIO
    TITLE "0:"
    INDEX 01 00:04:72
  TRACK 06 AUDIO
    TITLE "4:cjc129_1598"
    INDEX 01 00:05:67
  TRACK 07 AUDIO
    TITLE "0:"
    INDEX 01 00:07:09
  TRACK 08 AUDIO
    TITLE "6:cjc129_1599"
    INDEX 01 00:07:41
  TRACK 09 AUDIO
    TITLE "0:"
    INDEX 01 00:11:70
  TRACK 10 AUDIO
    TITLE "3:cjc129_1600"
    INDEX 01 00:13:47
  TRACK 11 AUDIO
    TITLE "0:"
    INDEX 01 00:14:64
  TRACK 12 AUDIO
    TITLE "5:cjc129_1601"
    INDEX 01 00:16:20
  TRACK 13 AUDIO
    TITLE "0:"
    INDEX 01 00:20:73
  TRACK 14 AUDIO
    TITLE "4:cjc129_1602"
    INDEX 01 00:21:66
  TRACK 15 AUDIO
    TITLE "0:"
    INDEX 01 00:23:08
  TRACK 16 AUDIO
    TITLE "6:cjc129_1603"
    INDEX 01 00:23:42
  TRACK 17 AUDIO
    TITLE "0:"
    INDEX 01 00:27:45
  TRACK 18 AUDIO
    TITLE "3:cjc129_1604"
    INDEX 01 00:29:23
  TRACK 19 AUDIO
    TITLE "0:"
    INDEX 01 00:30:61
  TRACK 20 AUDIO
    TITLE "5:cjc129_1605"
    INDEX 01 00:32:31
  TRACK 21 AUDIO
    TITLE "0:"
    INDEX 01 00:34:30
  TRACK 22 AUDIO
    TITLE "4:cjc129_1606"
    INDEX 01 00:35:21
  TRACK 23 AUDIO
    TITLE "0:"
    INDEX 01 00:36:60
  TRACK 24 AUDIO
    TITLE "6:cjc129_1607"
    INDEX 01 00:37:18
  TRACK 25 AUDIO
    TITLE "0:"
    INDEX 01 00:40:58
  TRACK 26 AUDIO
    TITLE "3:cjc129_1608"
    INDEX 01 00:42:35
  TRACK 27 AUDIO
    TITLE "0:"
    INDEX 01 00:43:72
  TRACK 28 AUDIO
    TITLE "5:cjc129_1609"
    INDEX 01 00:45:28
  TRACK 29 AUDIO
    TITLE "0:"
    INDEX 01 00:49:55
  TRACK 30 AUDIO
    TITLE "4:cjc129_1610"
    INDEX 01 00:50:44
  TRACK 31 AUDIO
    TITLE "0:"
    INDEX 01 00:52:06
  TRACK 32 AUDIO
    TITLE "6:cjc129_1611"
    INDEX 01 00:52:39
  TRACK 33 AUDIO
    TITLE "0:"
    INDEX 01 00:56:65
  TRACK 34 AUDIO
    TITLE "3:cjc129_1612"
    INDEX 01 00:58:40
  TRACK 35 AUDIO
    TITLE "0:"
    INDEX 01 00:59:61
  TRACK 36 AUDIO
    TITLE "5:cjc129_1613"
    INDEX 01 01:01:33
  TRACK 37 AUDIO
    TITLE "0:"
    INDEX 01 01:03:33
  TRACK 38 AUDIO
    TITLE "4:cjc129_1614"
    INDEX 01 01:04:23
  TRACK 39 AUDIO
    TITLE "0:"
    INDEX 01 01:05:44
  TRACK 40 AUDIO
    TITLE "6:cjc129_1615"
    INDEX 01 01:05:73
  TRACK 41 AUDIO
    TITLE "0:"
    INDEX 01 01:09:63
  TRACK 42 AUDIO
    TITLE "3:cjc129_1616"
    INDEX 01 01:11:39
  TRACK 43 AUDIO
    TITLE "0:"
    INDEX 01 01:12:58
  TRACK 44 AUDIO
    TITLE "5:cjc129_1617"
    INDEX 01 01:14:12
  TRACK 45 AUDIO
    TITLE "0:"
    INDEX 01 01:15:74
  TRACK 46 AUDIO
    TITLE "4:cjc129_1618"
    INDEX 01 01:16:65
  TRACK 47 AUDIO
    TITLE "0:"
    INDEX 01 01:18:11
  TRACK 48 AUDIO
    TITLE "6:cjc129_1619"
    INDEX 01 01:18:45
  TRACK 49 AUDIO
    TITLE "0:"
    INDEX 01 01:23:42
  TRACK 50 AUDIO
    TITLE "3:cjc129_1620"
    INDEX 01 01:25:15
  TRACK 51 AUDIO
    TITLE "0:"
    INDEX 01 01:26:36
  TRACK 52 AUDIO
    TITLE "5:cjc129_1621"
    INDEX 01 01:28:04
  TRACK 53 AUDIO
    TITLE "0:"
    INDEX 01 01:31:38
  TRACK 54 AUDIO
    TITLE "4:cjc129_1622"
    INDEX 01 01:32:27
  TRACK 55 AUDIO
    TITLE "0:"
    INDEX 01 01:33:48
  TRACK 56 AUDIO
    TITLE "6:cjc129_1623"
    INDEX 01 01:34:03
  TRACK 57 AUDIO
    TITLE "0:"
    INDEX 01 01:39:06
  TRACK 58 AUDIO
    TITLE "3:cjc129_1624"
    INDEX 01 01:40:56
  TRACK 59 AUDIO
    TITLE "0:"
    INDEX 01 01:41:69
  TRACK 60 AUDIO
    TITLE "5:cjc129_1625"
    INDEX 01 01:43:41
  TRACK 61 AUDIO
    TITLE "0:"
    INDEX 01 01:46:27
  TRACK 62 AUDIO
    TITLE "4:cjc129_1626"
    INDEX 01 01:47:15
  TRACK 63 AUDIO
    TITLE "0:"
    INDEX 01 01:48:28
  TRACK 64 AUDIO
    TITLE "6:cjc129_1627"
    INDEX 01 01:48:58
  TRACK 65 AUDIO
    TITLE "0:"
    INDEX 01 01:52:42
  TRACK 66 AUDIO
    TITLE "3:cjc129_1628"
    INDEX 01 01:54:19
  TRACK 67 AUDIO
    TITLE "0:"
    INDEX 01 01:55:32
  TRACK 68 AUDIO
    TITLE "5:cjc129_1629"
    INDEX 01 01:56:65
  TRACK 69 AUDIO
    TITLE "0:"
    INDEX 01 01:58:36
  TRACK 70 AUDIO
    TITLE "4:cjc129_1630"
    INDEX 01 01:59:26
  TRACK 71 AUDIO
    TITLE "0:"
    INDEX 01 02:00:39
  TRACK 72 AUDIO
    TITLE "6:cjc129_1631"
    INDEX 01 02:00:69
  TRACK 73 AUDIO
    TITLE "0:"
    INDEX 01 02:05:36
